# xmcd
# 
# Track frame offsets:
#     150
#     21032
#     37510
#     60879
#     76628
#     101068
#     123952
#     153525
#     165390
#     181554
#     214328
#     232517
# 
# Disc length: 3314
# 
# Revision: 19
# Processed by: cddbd v1.5.2PL0 Copyright (c) Steve Scherf et al.
# Submitted via: fre:ac v1.0.17
# 
DISCID=740cf00c
DTITLE=Rory Gallagher - Rory Gallagher
DYEAR=1970
DGENRE=Blues
TTITLE0=Laundromat
TTITLE1=Just The Smile
TTITLE2=I Fall Apart
TTITLE3=Wave Myself Goodbye
TTITLE4=Hands Up
TTITLE5=Sinner Boy
TTITLE6=For The Last Time
TTITLE7=It's You
TTITLE8=I'm Not Surprised
TTITLE9=Can't Believe It's True
TTITLE10=Gypsy Woman
TTITLE11=It Takes Time
EXTD=
EXTT0=
EXTT1=
EXTT2=
EXTT3=
EXTT4=
EXTT5=
EXTT6=
EXTT7=
EXTT8=
EXTT9=
EXTT10=
EXTT11=
PLAYORDER=
